<svg width="54" height="40" viewBox="0 0 54 40" fill="none" xmlns="http://www.w3.org/2000/svg">
<path d="M0 8C0 3.58172 3.58172 0 8 0H46C50.4183 0 54 3.58172 54 8V32C54 36.4183 50.4183 40 46 40H8C3.58172 40 0 36.4183 0 32V8Z" fill="#27AE60"/>
<path d="M33.8086 24.8633L31.0742 22.1289C30.9375 22.0195 30.7734 21.9375 30.6094 21.9375H30.1719C30.9102 20.9805 31.375 19.7773 31.375 18.4375C31.375 15.3203 28.8047 12.75 25.6875 12.75C22.543 12.75 20 15.3203 20 18.4375C20 21.582 22.543 24.125 25.6875 24.125C27 24.125 28.2031 23.6875 29.1875 22.9219V23.3867C29.1875 23.5508 29.2422 23.7148 29.3789 23.8516L32.0859 26.5586C32.3594 26.832 32.7695 26.832 33.0156 26.5586L33.7812 25.793C34.0547 25.5469 34.0547 25.1367 33.8086 24.8633ZM25.6875 21.9375C23.7461 21.9375 22.1875 20.3789 22.1875 18.4375C22.1875 16.5234 23.7461 14.9375 25.6875 14.9375C27.6016 14.9375 29.1875 16.5234 29.1875 18.4375C29.1875 20.3789 27.6016 21.9375 25.6875 21.9375Z" fill="white"/>
<path d="M8 2H46V-2H8V2ZM52 8V32H56V8H52ZM46 38H8V42H46V38ZM2 32V8H-2V32H2ZM8 38C4.68629 38 2 35.3137 2 32H-2C-2 37.5228 2.47715 42 8 42V38ZM52 32C52 35.3137 49.3137 38 46 38V42C51.5228 42 56 37.5228 56 32H52ZM46 2C49.3137 2 52 4.68629 52 8H56C56 2.47715 51.5229 -2 46 -2V2ZM8 -2C2.47715 -2 -2 2.47715 -2 8H2C2 4.68629 4.68629 2 8 2V-2Z" fill="#27AE60"/>
</svg>
